<?xml version="1.0" encoding="UTF-8"?>
<!DOCTYPE svg PUBLIC "-//W3C//DTD SVG 1.1//EN" "http://www.w3.org/Graphics/SVG/1.1/DTD/svg11.dtd">
<!-- Creator: CorelDRAW X6 -->
<svg xmlns="http://www.w3.org/2000/svg" xml:space="preserve" x="0" y="0" width="182" height="182" version="1.1" style="shape-rendering:geometricPrecision; text-rendering:geometricPrecision; image-rendering:optimizeQuality; fill-rule:evenodd; clip-rule:evenodd"
viewBox="0 1400 5000 5000"
 xmlns:xlink="http://www.w3.org/1999/xlink">
 <defs>
  <style type="text/css">
   <![CDATA[
    .fil0 {fill: #ffffff}
   ]]>
  </style>
 </defs>
 <g id="Слой_x0020_1">
  <metadata id="CorelCorpID_0Corel-Layer"/>
  <g id="_564044936">
   <path class="fil0" d="M1614 2313l0 27 47 0c38,0 62,7 62,7 24,6 40,29 40,29 15,22 19,47 19,47 4,25 4,52 4,52 0,26 -4,52 -4,52 -3,26 -15,47 -15,47 -16,24 -39,32 -39,32 -23,7 -55,7 -55,7l-59 0 0 33 -62 0 0 -33 -59 0c-31,0 -55,-7 -55,-7 -23,-8 -39,-32 -39,-32 -12,-21 -15,-47 -15,-47 -4,-26 -4,-52 -4,-52 0,-27 4,-52 4,-52 4,-25 19,-47 19,-47 7,-11 17,-18 17,-18 9,-6 22,-11 22,-11 13,-4 28,-5 28,-5 15,-2 34,-2 34,-2l48 0 0 -27 62 0zm-62 77l-38 0c-8,0 -17,1 -17,1 -8,1 -17,4 -17,4 -8,3 -14,8 -14,8 -7,5 -12,15 -12,15 -2,2 -3,6 -3,6 -2,4 -3,11 -3,11 -1,7 -2,16 -2,16 -1,10 -1,24 -1,24 0,28 2,40 2,40 3,12 5,18 5,18 5,11 13,17 13,17 8,6 19,9 19,9 10,3 20,4 20,4 9,0 20,0 20,0l28 0 0 -173zm90 173c9,0 20,0 20,0 10,0 20,-4 20,-4 10,-3 18,-9 18,-9 9,-6 14,-17 14,-17 3,-8 5,-20 5,-20 2,-12 2,-38 2,-38 0,-22 -2,-35 -2,-35 -2,-13 -7,-22 -7,-22 -10,-18 -26,-23 -26,-23 -16,-5 -35,-5 -35,-5l-37 0 0 173 28 0z"/>
   <path class="fil0" d="M1979 2394c16,0 30,5 30,5 13,5 22,14 22,14 8,8 13,23 13,23 5,15 5,37 5,37l0 130c0,7 -1,17 -1,17 -1,9 -9,16 -9,16 -6,6 -16,8 -16,8 -9,1 -18,2 -18,2l-121 0c-10,0 -22,-2 -22,-2 -12,-1 -23,-11 -23,-11 -8,-6 -12,-15 -12,-15 -4,-8 -7,-18 -7,-18 -2,-10 -3,-19 -3,-19 0,-8 0,-16 0,-16 0,-17 3,-33 3,-33 4,-16 18,-28 18,-28 12,-11 24,-13 24,-13 12,-2 22,-2 22,-2l110 0 0 -18c0,-5 -1,-12 -1,-12 -1,-6 -6,-11 -6,-11 -6,-8 -13,-10 -13,-10 -7,-1 -14,-1 -14,-1l-125 0 0 -43 144 0zm-78 138c-3,0 -9,1 -9,1 -6,1 -11,7 -11,7 -2,2 -4,8 -4,8 -3,6 -3,19 -3,19 0,6 1,15 1,15 1,8 7,13 7,13 3,3 8,6 8,6 4,2 10,2 10,2l78 0c2,0 5,0 5,0 4,0 7,-3 7,-3 3,-2 3,-5 3,-5 1,-2 1,-5 1,-5l0 -58 -93 0z"/>
   <path class="fil0" d="M2087 2433c0,-6 2,-14 2,-14 1,-9 10,-15 10,-15 8,-7 17,-8 17,-8 8,-2 17,-2 17,-2l114 0c6,0 14,0 14,0 7,0 15,2 15,2 7,3 15,5 15,5 7,3 13,11 13,11 9,11 11,24 11,24 2,13 2,22 2,22 0,10 -2,22 -2,22 -2,11 -9,20 -9,20 -5,6 -13,10 -13,10 -8,4 -17,5 -17,5l0 1c11,1 19,6 19,6 8,5 12,11 12,11 8,9 9,20 9,20 2,11 2,21 2,21 0,6 0,12 0,12 -1,7 -2,15 -2,15 -2,8 -5,15 -5,15 -4,7 -10,14 -10,14 -11,11 -26,13 -26,13 -14,2 -25,3 -25,3l-120 0c-8,0 -17,-2 -17,-2 -9,-1 -16,-7 -16,-7 -7,-6 -8,-14 -8,-14 -2,-8 -2,-14 -2,-14l0 -176zm142 61c5,0 12,-1 12,-1 6,-1 11,-7 11,-7 5,-4 6,-9 6,-9 1,-6 2,-11 2,-11 0,-6 -1,-12 -1,-12 -1,-6 -7,-11 -7,-11 -5,-5 -10,-5 -10,-5 -6,-1 -12,-1 -12,-1l-73 0c-2,0 -5,0 -5,0 -3,0 -6,2 -6,2 -2,3 -2,5 -2,5 -1,3 -1,5 -1,5l0 45 86 0zm-86 94c0,3 1,5 1,5 0,3 2,6 2,6 2,3 5,3 5,3 3,1 7,1 7,1l69 0c6,0 14,-1 14,-1 7,-1 12,-7 12,-7 5,-5 6,-12 6,-12 1,-8 2,-14 2,-14 0,-6 -1,-12 -1,-12 -1,-6 -6,-12 -6,-12 -5,-6 -12,-7 -12,-7 -7,-1 -12,-1 -12,-1l-87 0 0 51z"/>
   <path class="fil0" d="M2477 2391c11,0 25,0 25,0 13,1 27,3 27,3 14,3 26,8 26,8 13,6 24,16 24,16 11,10 17,23 17,23 6,13 10,27 10,27 4,15 4,28 4,28 1,12 1,23 1,23 0,40 -9,64 -9,64 -9,25 -23,38 -23,38 -10,10 -23,15 -23,15 -13,5 -27,8 -27,8 -14,3 -28,4 -28,4 -13,0 -24,1 -24,1 -11,0 -25,-1 -25,-1 -13,0 -27,-3 -27,-3 -14,-3 -27,-8 -27,-8 -12,-6 -23,-16 -23,-16 -11,-10 -17,-23 -17,-23 -7,-14 -10,-27 -10,-27 -3,-14 -4,-27 -4,-27 -1,-14 -1,-23 -1,-23 0,-11 1,-25 1,-25 1,-13 4,-27 4,-27 3,-14 10,-28 10,-28 6,-13 17,-23 17,-23 11,-10 23,-15 23,-15 13,-5 27,-8 27,-8 14,-3 27,-4 27,-4 14,0 25,0 25,0zm-77 129c0,16 2,34 2,34 2,17 15,31 15,31 12,14 28,17 28,17 16,3 32,4 32,4 16,0 31,-4 31,-4 16,-3 29,-17 29,-17 12,-14 14,-31 14,-31 2,-17 3,-34 3,-34 0,-7 0,-15 0,-15 0,-8 -2,-18 -2,-18 -1,-9 -5,-17 -5,-17 -3,-8 -10,-16 -10,-16 -6,-7 -13,-11 -13,-11 -7,-4 -15,-6 -15,-6 -8,-2 -16,-3 -16,-3 -8,0 -16,0 -16,0 -7,0 -15,0 -15,0 -8,1 -16,3 -16,3 -9,1 -16,6 -16,6 -7,4 -14,11 -14,11 -6,6 -9,15 -9,15 -3,9 -5,18 -5,18 -1,9 -1,19 -1,19 0,9 -1,14 -1,14z"/>
   <path class="fil0" d="M2698 2727l-56 0 0 -294c0,-13 5,-20 5,-20 5,-7 10,-11 10,-11 7,-5 15,-7 15,-7 9,-1 16,-1 16,-1l88 0c6,0 15,0 15,0 8,1 19,4 19,4 10,3 21,8 21,8 10,5 19,15 19,15 10,10 15,22 15,22 5,12 8,24 8,24 3,13 3,25 3,25 1,12 1,23 1,23 0,12 -1,25 -1,25 0,13 -2,25 -2,25 -2,12 -6,24 -6,24 -4,11 -11,21 -11,21 -9,12 -20,20 -20,20 -11,7 -23,11 -23,11 -13,3 -24,4 -24,4 -12,0 -22,1 -22,1l-70 0 0 81zm63 -124c21,0 32,-8 32,-8 11,-7 16,-15 16,-15 4,-6 7,-19 7,-19 3,-14 3,-42 3,-42 0,-25 -2,-37 -2,-37 -1,-11 -4,-17 -4,-17 -6,-12 -18,-20 -18,-20 -12,-8 -31,-8 -31,-8l-55 0c-1,0 -3,1 -3,1 -2,0 -4,2 -4,2 -4,4 -4,8 -4,8l0 155 63 0z"/>
   <path class="fil0" d="M3099 2646l2 -179c0,-3 0,-5 0,-5 0,-2 -3,-2 -3,-2 -1,0 -2,1 -2,1 -1,1 -4,6 -4,6l-111 162c-7,10 -14,14 -14,14 -8,5 -22,6 -22,6 -13,0 -20,-4 -20,-4 -7,-4 -11,-9 -11,-9 -3,-5 -4,-12 -4,-12 -1,-6 -2,-11 -2,-11l0 -219 56 0 -3 179c0,3 1,5 1,5 0,1 3,2 3,2 3,0 4,-2 4,-2 2,-2 3,-5 3,-5l112 -165c8,-11 17,-14 17,-14 9,-3 17,-3 17,-3 3,0 9,0 9,0 7,1 12,5 12,5 6,4 11,12 11,12 6,7 5,21 5,21l0 217 -56 0z"/>
   <polygon class="fil0" points="3269,2646 3269,2437 3174,2437 3174,2394 3419,2394 3419,2437 3324,2437 3324,2646 "/>
   <polygon class="fil0" points="3438,2493 3608,2493 3608,2542 3438,2542 "/>
   <path class="fil0" d="M3760 2451c0,-14 2,-29 2,-29 2,-14 6,-29 6,-29 5,-14 12,-26 12,-26 7,-13 18,-23 18,-23 14,-13 30,-20 30,-20 17,-7 35,-11 35,-11 18,-3 35,-3 35,-3 16,-1 33,-1 33,-1 15,0 32,1 32,1 17,0 35,3 35,3 18,4 34,11 34,11 17,7 31,20 31,20 24,23 31,57 31,57 7,35 7,78 7,78 0,17 -1,36 -1,36 -1,18 -4,36 -4,36 -4,17 -12,34 -12,34 -7,17 -21,29 -21,29 -14,14 -30,21 -30,21 -17,7 -35,10 -35,10 -18,4 -35,4 -35,4 -17,1 -32,1 -32,1 -15,0 -32,-1 -32,-1 -17,0 -35,-4 -35,-4 -19,-3 -35,-10 -35,-10 -17,-7 -31,-21 -31,-21 -11,-10 -18,-23 -18,-23 -7,-14 -12,-29 -12,-29 -5,-16 -7,-31 -7,-31 -1,-16 -1,-30 -1,-30l-42 0 0 145 -63 0 0 -333 63 0 0 138 42 0zm65 28c0,37 5,58 5,58 6,21 15,34 15,34 8,10 17,16 17,16 9,5 21,8 21,8 11,3 22,4 22,4 12,0 26,1 26,1 28,0 49,-5 49,-5 20,-5 35,-24 35,-24 11,-13 16,-35 16,-35 5,-21 6,-57 6,-57 0,-38 -6,-59 -6,-59 -6,-20 -16,-33 -16,-33 -8,-10 -18,-16 -18,-16 -10,-5 -21,-8 -21,-8 -12,-3 -23,-3 -23,-3 -11,-1 -22,-1 -22,-1 -11,0 -23,1 -23,1 -11,0 -23,3 -23,3 -11,3 -21,8 -21,8 -10,6 -19,16 -19,16 -9,13 -15,33 -15,33 -5,21 -5,59 -5,59z"/>
   <path class="fil0" d="M4139 2646l0 -211c0,-7 1,-15 1,-15 0,-7 5,-13 5,-13 5,-9 13,-11 13,-11 8,-2 17,-2 17,-2l175 0 0 43 -140 0c-4,0 -6,1 -6,1 -3,1 -5,3 -5,3 -4,4 -4,7 -4,7 0,3 0,9 0,9l0 189 -56 0z"/>
   <path class="fil0" d="M1236 2500c0,160 -129,289 -293,289 -164,0 -293,-129 -293,-289 0,-3 0,-7 0,-10 18,57 69,99 131,103 28,61 85,99 162,99 112,0 181,-80 181,-192 0,-112 -69,-192 -181,-192 -20,0 -38,3 -55,8 -15,-23 -32,-42 -45,-58 -7,-9 -15,-18 -18,-23 36,-16 76,-24 118,-24 164,0 293,129 293,289zm-334 -54c0,61 -49,111 -110,111 -62,0 -111,-50 -111,-111 0,-78 94,-166 111,-194 16,28 110,116 110,194zm-95 63c1,-7 -5,-13 -12,-13 -20,-1 -47,-22 -53,-42 -2,-7 -9,-11 -15,-9 -7,2 -10,9 -8,16 9,30 45,58 75,59 7,1 13,-5 13,-11z"/>
  </g>
 </g>
</svg>
